<?xml version="1.0" standalone="no"?>
<!DOCTYPE svg PUBLIC "-//W3C//DTD SVG 20010904//EN"
 "http://www.w3.org/TR/2001/REC-SVG-20010904/DTD/svg10.dtd">
<svg version="1.0" xmlns="http://www.w3.org/2000/svg"
 width="260.000000pt" height="260.000000pt" viewBox="0 0 260.000000 260.000000"
 preserveAspectRatio="xMidYMid meet">
<metadata>
Created by potrace 1.14, written by Peter Selinger 2001-2017
</metadata>
<g transform="translate(0.000000,260.000000) scale(0.100000,-0.100000)"
fill="#000000" stroke="none">
<path d="M0 1300 l0 -1300 1300 0 1300 0 0 1300 0 1300 -1300 0 -1300 0 0
-1300z m1497 801 c87 -40 183 -159 183 -228 0 -31 11 -29 46 8 38 40 156 115
271 173 123 61 132 60 87 -10 -77 -119 -74 -98 -72 -754 l3 -585 51 0 c42 1
74 11 169 58 65 32 120 56 122 53 14 -14 -369 -410 -412 -426 -78 -30 -207 11
-252 79 -20 29 -23 48 -23 130 l-1 96 -66 -70 c-36 -38 -79 -88 -95 -109 l-28
-39 0 256 0 257 -210 0 -211 0 -135 -62 c-74 -34 -133 -65 -132 -69 4 -11 166
-139 175 -139 4 0 60 31 123 69 63 38 117 67 119 65 2 -2 -65 -75 -150 -162
-85 -87 -181 -195 -214 -240 -33 -45 -63 -81 -67 -82 -3 0 -11 14 -17 31 -19
55 -83 128 -179 205 -133 106 -178 127 -262 122 l-67 -3 90 96 c49 54 103 107
120 120 44 32 107 36 158 10 l41 -22 52 33 c153 98 416 337 514 468 106 143
137 281 80 367 -33 51 -113 93 -175 93 -62 0 -156 -34 -241 -87 -40 -25 -75
-43 -77 -41 -2 2 71 79 163 170 122 122 176 169 202 176 19 6 89 11 155 11 98
0 128 -3 162 -18z m-347 -380 l65 -59 -60 -61 c-33 -34 -64 -61 -70 -61 -6 0
-37 27 -70 60 l-59 60 59 60 c33 33 62 60 65 60 3 0 34 -27 70 -59z"/>
<path d="M1651 1668 c-7 -24 -31 -77 -52 -118 l-39 -76 0 -182 0 -182 55 0 55
0 0 300 c0 165 -2 300 -3 300 -2 0 -9 -19 -16 -42z"/>
<path d="M1420 1317 c-30 -33 -94 -91 -142 -130 l-86 -72 140 -3 c78 -1 143
-1 145 1 2 3 2 62 1 133 l-3 129 -55 -58z"/>
<path d="M1560 829 l0 -161 33 19 c84 51 77 34 77 175 l0 128 -55 0 -55 0 0
-161z"/>
</g>
</svg>
